<?xml version="1.0" encoding="UTF-8" standalone="no"?>
<svg width="86px" height="127px" viewBox="0 0 86 127" version="1.1" xmlns="http://www.w3.org/2000/svg" xmlns:xlink="http://www.w3.org/1999/xlink" xmlns:sketch="http://www.bohemiancoding.com/sketch/ns">
    <!-- Generator: Sketch 3.1 (8751) - http://www.bohemiancoding.com/sketch -->
    <title>kids hats 2</title>
    <desc>Created with Sketch.</desc>
    <defs></defs>
    <g id="Page-1" stroke="none" stroke-width="1" fill="none" fill-rule="evenodd" sketch:type="MSPage">
        <path d="M42,122 C60.2253967,122 75,104.98682 75,84 C75,66.7062032 58,56.5 43.5,56.5 C29.9999997,56.5 9,63.0131795 9,84 C9,104.98682 23.7746033,122 42,122 Z" id="Oval-7" stroke="#D25951" stroke-width="6" sketch:type="MSShapeGroup"></path>
        <g id="icon_3690" sketch:type="MSLayerGroup" transform="translate(27.000000, 74.000000)" fill="#D25951">
            <g id="Group" sketch:type="MSShapeGroup">
                <circle id="Oval-2" cx="4.715" cy="4.715" r="4.715"></circle>
                <path d="M26.715,9.43 C29.3190226,9.43 31.43,7.3190226 31.43,4.715 C31.43,2.1109774 29.3190226,0 26.715,0 C24.1109774,0 22,2.1109774 22,4.715 C22,7.3190226 24.1109774,9.43 26.715,9.43 Z" id="Oval-2"></path>
                <path d="M14.69,35.06 C11.813,35.06 9.108,33.941 7.082,31.907 C5.923,30.744 5.927,28.862 7.086,27.703 C8.249,26.544 10.133,26.55 11.293,27.709 C13.188,29.606 16.585,29.482 18.334,27.438 C19.401,26.192 21.281,26.043 22.525,27.111 C23.773,28.177 23.92,30.053 22.853,31.301 C20.811,33.69 17.833,35.06 14.69,35.06 L14.69,35.06 Z" id="Shape-2"></path>
            </g>
        </g>
        <g id="icon_29952" sketch:type="MSLayerGroup" transform="translate(3.000000, 5.000000)">
            <g id="Group" sketch:type="MSShapeGroup">
                <path d="M73.3192913,35.7920761 C73.3192913,35.2057052 73.3076957,34.6193344 73.2613131,34.044691 C72.3800437,18.541046 59.7871685,5.98098257 43.6924071,4.10459588 L40.2832861,0 L38.8813721,0 L35.4838468,4.09286846 C19.3067563,5.89889065 6.63271147,18.4824089 5.75144212,34.044691 C5.71781473,34.6193344 5.70505952,35.2057052 5.70505952,35.7920761 L5.70505952,56.3033281 L0,65.6500792 L10.3189684,63.3515055 L40,67 L69.4915675,63.4206973 L79,65.6137242 L73.3192913,56.3033281 L73.3192913,35.7920761 Z M29.2457624,25.2578008 L29.2457624,19.2369177 L35.2524779,19.2369177 L39.4994134,15 L43.746349,19.2369177 L49.7413326,19.2369177 L49.7413326,25.2578008 L54,29.5064551 L49.7413326,33.7433729 L49.7413326,39.7642559 L43.746349,39.7642559 L39.4994134,44 L35.2524779,39.7642559 L29.2457624,39.7642559 L29.2457624,33.7433729 L25,29.5064551 L29.2457624,25.2578008 L29.2457624,25.2578008 Z" id="Shape" fill="#D25951"></path>
                <path d="M39.4929412,22 C35.3517647,22 32,25.3529412 32,29.5058824 C32,33.6470588 35.3529412,37 39.4929412,37 C43.6352941,37 47,33.6470588 47,29.5058824 C47,25.3529412 43.6352941,22 39.4929412,22 L39.4929412,22 Z M38.9936957,35 C35.6810584,35 33,32.3054441 33,29.0057307 C33,25.6934097 35.6822046,23 38.9936957,23 C42.3074792,23 45,25.6934097 45,29.0057307 C45,32.3065903 42.3074792,35 38.9936957,35 L38.9936957,35 Z" id="Shape" fill="#000000"></path>
                <path d="M39.4929412,22 C35.3517647,22 32,25.3529412 32,29.5058824 C32,33.6470588 35.3529412,37 39.4929412,37 C43.6352941,37 47,33.6470588 47,29.5058824 C47,25.3529412 43.6352941,22 39.4929412,22 L39.4929412,22 Z" id="Shape" fill="#D25951"></path>
                <path d="M39.4929412,22 C35.3517647,22 32,25.3529412 32,29.5058824 C32,33.6470588 35.3529412,37 39.4929412,37 C43.6352941,37 47,33.6470588 47,29.5058824 C47,25.3529412 43.6352941,22 39.4929412,22 L39.4929412,22 Z M38.9936957,35 C35.6810584,35 33,32.3054441 33,29.0057307 C33,25.6934097 35.6822046,23 38.9936957,23 C42.3074792,23 45,25.6934097 45,29.0057307 C45,32.3065903 42.3074792,35 38.9936957,35 L38.9936957,35 Z" id="Shape" fill="#D25951"></path>
            </g>
        </g>
    </g>
</svg>