<?xml version="1.0" encoding="UTF-8" standalone="no"?>
<svg width="106px" height="115px" viewBox="0 0 106 115" version="1.1" xmlns="http://www.w3.org/2000/svg" xmlns:xlink="http://www.w3.org/1999/xlink" xmlns:sketch="http://www.bohemiancoding.com/sketch/ns">
    <!-- Generator: Sketch 3.1 (8751) - http://www.bohemiancoding.com/sketch -->
    <title>kids hats 2</title>
    <desc>Created with Sketch.</desc>
    <defs></defs>
    <g id="Page-1" stroke="none" stroke-width="1" fill="none" fill-rule="evenodd" sketch:type="MSPage">
        <g id="icon_3690" sketch:type="MSLayerGroup" transform="translate(3.000000, 18.000000)" fill="#D25951">
            <g id="Group" sketch:type="MSShapeGroup">
                <circle id="Oval" cx="26.715" cy="48.715" r="4.715"></circle>
                <circle id="Oval" cx="48.715" cy="48.715" r="4.715"></circle>
                <path d="M74.1,20.005 C67.625,3.053 47.14,-4.871 28.35,2.3 C18.689,5.99 10.635,13.461 6.671,22.834 C2.473,30.011 0,38.737 0,48.149 C0,72.518 16.544,92.342 36.878,92.342 C55.367,92.342 70.72,75.975 73.375,54.704 C80.094,55.005 88.721,51.453 94.215,49.358 C113.004,42.185 80.566,36.967 74.1,20.005 L74.1,20.005 Z M36.878,86.399 C19.821,86.399 5.943,69.241 5.943,48.149 C5.943,45.213 6.236,42.367 6.744,39.621 C13.2,44.221 29.536,40.045 34.767,38.674 C42.382,36.677 47.663,36.255 54.38,41.184 C59.015,44.583 62.415,50.311 67.546,53.111 C65.568,71.862 52.586,86.399 36.878,86.399 L36.878,86.399 Z" id="Shape"></path>
                <path d="M36.69,79.06 C33.813,79.06 31.108,77.941 29.082,75.907 C27.923,74.744 27.927,72.862 29.086,71.703 C30.249,70.544 32.133,70.55 33.293,71.709 C35.188,73.606 38.585,73.482 40.334,71.438 C41.401,70.192 43.281,70.043 44.525,71.111 C45.773,72.177 45.92,74.053 44.853,75.301 C42.811,77.69 39.833,79.06 36.69,79.06 L36.69,79.06 Z" id="Shape"></path>
            </g>
        </g>
        <g id="icon_22212" sketch:type="MSLayerGroup" transform="translate(12.000000, 7.000000)" fill="#D25951">
            <g id="Page-1" sketch:type="MSShapeGroup">
                <g id="Group" transform="translate(31.000000, 12.500000) scale(-1, 1) translate(-31.000000, -12.500000) ">
                    <path d="M29,0 L29,25 L32,25 L32,0 L29,0 L29,0 Z" id="Rectangle-1"></path>
                    <path d="M30,7 C31.6568541,7 33,5.4329967 33,3.5 C33,1.5670033 31.6568541,0 30,0 C28.3431459,0 27,1.5670033 27,3.5 C27,5.4329967 28.3431459,7 30,7 L30,7 Z" id="Oval-1"></path>
                    <path d="M31,4.4942904 C31,4.4942904 48.2946309,1.5e-06 55.0998088,0 C61.9049868,-1.595e-06 62,3.03588905 62,3.03588905 C62,3.03588905 60.5748024,7 55.6598276,7 C50.7448529,7 31,4.4942904 31,4.4942904 L31,4.4942904 Z" id="Path-5"></path>
                    <path d="M24.0998088,0 C30.9049868,-1.595e-06 31,3.03588905 31,3.03588905 C31,3.03588905 29.5748024,7 24.6598276,7 C19.7448528,7 0,4.4942904 0,4.4942904 C0,4.4942904 17.294631,1.5e-06 24.0998088,0 Z" id="Path-5" transform="translate(15.500000, 3.500000) scale(-1, 1) translate(-15.500000, -3.500000) "></path>
                </g>
            </g>
        </g>
    </g>
</svg>