<?xml version="1.0" encoding="UTF-8" standalone="no"?>
<svg width="424px" height="107px" viewBox="0 0 424 107" version="1.1" xmlns="http://www.w3.org/2000/svg" xmlns:xlink="http://www.w3.org/1999/xlink" xmlns:sketch="http://www.bohemiancoding.com/sketch/ns">
    <!-- Generator: Sketch 3.1 (8751) - http://www.bohemiancoding.com/sketch -->
    <title>Slice 2</title>
    <desc>Created with Sketch.</desc>
    <defs>
        <path id="path-1" d="M31.1037195,92.9708954 C31.1037195,92.9708954 32.4142661,92.8145312 32.3634885,92.24616 C32.3634885,92.24616 31.9342965,91.4184228 31.6707364,90.9530533 C31.4059673,90.4876838 31.1411982,90.0223143 31.178677,89.8671912 C31.2173647,89.712068 31.178677,86.4544816 31.178677,86.4544816 C31.178677,86.4544816 32.1615869,84.8263089 32.0479417,83.5853236 C31.9342965,82.3443383 31.7589928,81.6469046 31.5063136,80.767046 C31.2548434,79.8871874 30.5995701,78.5953217 30.5995701,78.1299522 C30.5995701,77.6645827 30.5995701,77.1979723 30.901818,76.2163529 C31.2052748,75.2347335 31.9596854,69.7011801 32.1615869,68.4093144 C32.3634885,67.1162077 32.3634885,65.7722207 33.0187618,65.151728 C33.674035,64.5312354 34.1769754,64.479114 33.7236037,63.548375 C33.2702319,62.7218788 32.5146124,60.6531563 32.6161676,59.5151728 C32.7165139,58.3771893 33.0695394,57.136204 33.4225649,56.3605882 C33.7743813,55.5849724 34.1769754,55.1717243 32.9172065,53.4132481 C31.6586465,52.2765056 29.5936894,51.1894025 28.4850443,50.4137866 C27.3763993,49.6381708 26.6727664,49.5351691 26.4200872,49.4830477 C26.168617,49.4321673 25.5641213,49.2249227 25.3622198,48.862555 C25.1603182,48.5014283 25.1603182,48.0360588 24.8085017,48.0360588 C24.4554763,48.0360588 23.4979552,48.1390606 22.9950148,47.7258125 C22.4908654,47.3113234 22.0882713,47.0531985 21.6348995,47.1053198 C21.1815278,47.1562002 20.7269471,46.4835862 20.6266008,46.1224595 C20.5262545,45.7600918 20.7281561,45.4510864 20.4246992,45.3989651 C20.1224514,45.3468437 19.9217589,44.7772314 20.2747843,44.2609815 C20.6266008,43.7434907 21.1803188,43.1751194 21.6844682,43.1751194 C22.1886176,43.1751194 22.1390489,43.0199963 22.4908654,42.9169945 C22.8426819,42.8127517 24.0021045,43.0708767 24.6561688,43.7956121 C25.3114421,44.5191065 26.0162841,44.7784724 27.9821039,45.3989651 C29.9455058,46.0194577 31.7602018,46.0194577 32.1627959,45.9152149 C32.56539,45.8122132 32.6161676,45.1395991 32.56539,44.6742297 C32.5158214,44.2088602 32.1627959,43.0199963 33.0199707,42.0892573 C33.8759366,41.1585183 34.4296546,40.6943898 34.5312099,39.9696544 C34.6315562,39.24616 34.6823338,38.988035 34.8334577,38.4184228 C34.9845816,37.8500515 35.1852742,37.4876838 34.8334577,36.8150698 C34.5312099,36.1945771 34.1274068,35.781329 33.7248127,35.781329 C33.3222186,35.781329 33.0695394,35.4202023 32.8688468,35.109956 C32.6669453,34.7997097 32.566599,34.5924651 32.4154751,34.4894633 C32.2643512,34.3852206 32.1627959,33.8689707 32.0624496,33.3514798 C31.9621033,32.8339889 31.6598555,32.4207408 31.457954,32.4207408 C31.2560524,32.4207408 30.8026807,32.0596141 31.0045822,31.5421233 C31.2064838,31.0246324 31.6090779,30.6635057 31.4071763,30.1460148 C31.2064838,29.6285239 30.5004328,29.1631544 29.9974925,28.1815351 C29.4933431,27.1986747 28.7365145,24.6137024 28.8380698,23.7859652 C28.8380698,23.7859652 28.0824502,23.4248384 28.3846981,22.700103 C28.6869459,21.9766086 30.0470611,18.8741454 32.9184155,16.7024211 C35.0341503,14.9439449 36.747291,13.8072024 39.0649273,13.2375901 C40.5241798,13.1345884 41.9846413,12.6692189 43.5478671,14.3234523 C44.0012388,14.8930645 44.0508075,15.0469467 44.4546106,15.4614358 C44.8572047,15.8746839 46.5183588,16.7024211 47.9304606,18.9771471 C48.7864265,20.3223752 49.0886743,21.4082373 48.8879817,22.700103 C48.6848712,23.9932097 48.1311532,26.0098108 48.1311532,26.5781821 C48.1311532,27.1477943 48.0308069,27.9221691 47.4770889,28.3366582 C46.9233708,28.7499063 46.2185289,29.370399 46.1677513,29.6806453 C46.1169736,29.9908916 46.1665423,31.4391215 46.2680976,31.6972464 C46.3684438,31.9566123 46.8206066,32.1117355 47.0237171,32.1626159 C47.2244097,32.2147373 47.7273501,32.2656177 47.9304606,32.3698604 C48.1311532,32.4728622 48.7864265,32.8352299 49.0886743,33.0424745 C49.3909221,33.248478 50.3980119,33.507844 51.0012985,33.7150885 C51.6057942,33.9210921 53.3189349,34.3864616 53.8230843,35.9898146 C54.3768023,37.0756767 55.9388191,39.6606491 56.2410669,40.1781399 C56.5433147,40.6943898 56.7947849,41.0567575 57.0474641,41.2118807 C57.2989343,41.3670038 58.3072331,42.0396179 58.4075793,42.9703568 C58.5079256,43.9010958 58.8101734,44.6245902 58.9105197,44.9348366 C59.012075,45.2450829 59.2127675,46.1770628 59.2635452,46.9005573 C59.3143228,47.6240517 58.8597421,48.5039103 58.3568017,49.0722815 C57.8526523,49.6406528 57.4004896,50.2611455 56.1407206,50.4162686 C55.535016,50.4162686 55.1336309,50.1581437 54.7806054,50.0539009 C54.4275799,49.9508991 53.9742082,49.795776 53.9234306,49.9508991 C53.8738619,50.1060223 53.7723066,50.1060223 53.8230843,50.4162686 C53.8738619,50.7265149 53.9234306,53.9841013 53.9234306,54.3973494 C53.9234306,54.8105975 53.9742082,55.0687225 54.1749007,55.3789688 C54.3768023,55.6892151 54.3768023,56.4139505 54.4275799,56.8271987 C54.4783576,57.2404468 54.7806054,57.8609394 54.7806054,58.2754285 C54.7806054,58.6886766 54.9317293,60.34291 55.0816442,60.6531563 C55.2339771,60.9634026 55.6873489,61.9983844 55.8384728,62.4116325 C55.9883877,62.8248806 56.3414132,64.6342371 56.4417595,65.4619743 C56.5433147,66.2897115 56.7452163,67.68582 56.7452163,67.9960663 C56.7452163,68.3063126 57.0462551,69.5472979 57.1478104,70.0126674 C57.2481567,70.4780369 57.4004896,71.1494099 57.5008358,71.3566545 C57.6011821,71.563899 58.1549001,72.7006416 58.1549001,73.0108879 C58.1549001,73.3211342 58.3568017,75.1317318 58.3568017,75.700103 C58.3568017,76.2684743 59.010866,77.562822 59.1124213,78.2863164 C59.2127675,79.0098108 59.1124213,80.4580406 58.9612974,82.1643954 C58.8101734,83.8186288 58.0037762,86.506603 58.0545539,86.9210921 C58.1053315,87.3355812 58.1053315,95.194741 58.1053315,95.194741 C58.1053315,95.194741 56.5433147,99.2291842 51.4051016,101.762035 L51.7073495,106 L81,105.998759 L58.8101734,0 L24.7565151,0 L0,106 L29.1403176,105.973939 L31.1037195,92.9708954"></path>
    </defs>
    <g id="Page-1" stroke="none" stroke-width="1" fill="none" fill-rule="evenodd" sketch:type="MSPage">
        <text id="MBER" sketch:type="MSTextLayer" font-family="Futura Std" font-size="141" font-style="condensed" font-weight="633" letter-spacing="-5.69999695" fill="#FFFFFF">
            <tspan x="84" y="107">MBE</tspan>
            <tspan x="339.594009" y="107">R</tspan>
        </text>
        <g id="Group-18" sketch:type="MSLayerGroup" transform="translate(0.000000, 1.000000)">
            <mask id="mask-2" sketch:name="Clip 17" fill="white">
                <use xlink:href="#path-1"></use>
            </mask>
            <g id="Clip-17"></g>
            <path d="M31.1037195,92.9708954 C31.1037195,92.9708954 32.4142661,92.8145312 32.3634885,92.24616 C32.3634885,92.24616 31.9342965,91.4184228 31.6707364,90.9530533 C31.4059673,90.4876838 31.1411982,90.0223143 31.178677,89.8671912 C31.2173647,89.712068 31.178677,86.4544816 31.178677,86.4544816 C31.178677,86.4544816 32.1615869,84.8263089 32.0479417,83.5853236 C31.9342965,82.3443383 31.7589928,81.6469046 31.5063136,80.767046 C31.2548434,79.8871874 30.5995701,78.5953217 30.5995701,78.1299522 C30.5995701,77.6645827 30.5995701,77.1979723 30.901818,76.2163529 C31.2052748,75.2347335 31.9596854,69.7011801 32.1615869,68.4093144 C32.3634885,67.1162077 32.3634885,65.7722207 33.0187618,65.151728 C33.674035,64.5312354 34.1769754,64.479114 33.7236037,63.548375 C33.2702319,62.7218788 32.5146124,60.6531563 32.6161676,59.5151728 C32.7165139,58.3771893 33.0695394,57.136204 33.4225649,56.3605882 C33.7743813,55.5849724 34.1769754,55.1717243 32.9172065,53.4132481 C31.6586465,52.2765056 29.5936894,51.1894025 28.4850443,50.4137866 C27.3763993,49.6381708 26.6727664,49.5351691 26.4200872,49.4830477 C26.168617,49.4321673 25.5641213,49.2249227 25.3622198,48.862555 C25.1603182,48.5014283 25.1603182,48.0360588 24.8085017,48.0360588 C24.4554763,48.0360588 23.4979552,48.1390606 22.9950148,47.7258125 C22.4908654,47.3113234 22.0882713,47.0531985 21.6348995,47.1053198 C21.1815278,47.1562002 20.7269471,46.4835862 20.6266008,46.1224595 C20.5262545,45.7600918 20.7281561,45.4510864 20.4246992,45.3989651 C20.1224514,45.3468437 19.9217589,44.7772314 20.2747843,44.2609815 C20.6266008,43.7434907 21.1803188,43.1751194 21.6844682,43.1751194 C22.1886176,43.1751194 22.1390489,43.0199963 22.4908654,42.9169945 C22.8426819,42.8127517 24.0021045,43.0708767 24.6561688,43.7956121 C25.3114421,44.5191065 26.0162841,44.7784724 27.9821039,45.3989651 C29.9455058,46.0194577 31.7602018,46.0194577 32.1627959,45.9152149 C32.56539,45.8122132 32.6161676,45.1395991 32.56539,44.6742297 C32.5158214,44.2088602 32.1627959,43.0199963 33.0199707,42.0892573 C33.8759366,41.1585183 34.4296546,40.6943898 34.5312099,39.9696544 C34.6315562,39.24616 34.6823338,38.988035 34.8334577,38.4184228 C34.9845816,37.8500515 35.1852742,37.4876838 34.8334577,36.8150698 C34.5312099,36.1945771 34.1274068,35.781329 33.7248127,35.781329 C33.3222186,35.781329 33.0695394,35.4202023 32.8688468,35.109956 C32.6669453,34.7997097 32.566599,34.5924651 32.4154751,34.4894633 C32.2643512,34.3852206 32.1627959,33.8689707 32.0624496,33.3514798 C31.9621033,32.8339889 31.6598555,32.4207408 31.457954,32.4207408 C31.2560524,32.4207408 30.8026807,32.0596141 31.0045822,31.5421233 C31.2064838,31.0246324 31.6090779,30.6635057 31.4071763,30.1460148 C31.2064838,29.6285239 30.5004328,29.1631544 29.9974925,28.1815351 C29.4933431,27.1986747 28.7365145,24.6137024 28.8380698,23.7859652 C28.8380698,23.7859652 28.0824502,23.4248384 28.3846981,22.700103 C28.6869459,21.9766086 30.0470611,18.8741454 32.9184155,16.7024211 C35.0341503,14.9439449 36.747291,13.8072024 39.0649273,13.2375901 C40.5241798,13.1345884 41.9846413,12.6692189 43.5478671,14.3234523 C44.0012388,14.8930645 44.0508075,15.0469467 44.4546106,15.4614358 C44.8572047,15.8746839 46.5183588,16.7024211 47.9304606,18.9771471 C48.7864265,20.3223752 49.0886743,21.4082373 48.8879817,22.700103 C48.6848712,23.9932097 48.1311532,26.0098108 48.1311532,26.5781821 C48.1311532,27.1477943 48.0308069,27.9221691 47.4770889,28.3366582 C46.9233708,28.7499063 46.2185289,29.370399 46.1677513,29.6806453 C46.1169736,29.9908916 46.1665423,31.4391215 46.2680976,31.6972464 C46.3684438,31.9566123 46.8206066,32.1117355 47.0237171,32.1626159 C47.2244097,32.2147373 47.7273501,32.2656177 47.9304606,32.3698604 C48.1311532,32.4728622 48.7864265,32.8352299 49.0886743,33.0424745 C49.3909221,33.248478 50.3980119,33.507844 51.0012985,33.7150885 C51.6057942,33.9210921 53.3189349,34.3864616 53.8230843,35.9898146 C54.3768023,37.0756767 55.9388191,39.6606491 56.2410669,40.1781399 C56.5433147,40.6943898 56.7947849,41.0567575 57.0474641,41.2118807 C57.2989343,41.3670038 58.3072331,42.0396179 58.4075793,42.9703568 C58.5079256,43.9010958 58.8101734,44.6245902 58.9105197,44.9348366 C59.012075,45.2450829 59.2127675,46.1770628 59.2635452,46.9005573 C59.3143228,47.6240517 58.8597421,48.5039103 58.3568017,49.0722815 C57.8526523,49.6406528 57.4004896,50.2611455 56.1407206,50.4162686 C55.535016,50.4162686 55.1336309,50.1581437 54.7806054,50.0539009 C54.4275799,49.9508991 53.9742082,49.795776 53.9234306,49.9508991 C53.8738619,50.1060223 53.7723066,50.1060223 53.8230843,50.4162686 C53.8738619,50.7265149 53.9234306,53.9841013 53.9234306,54.3973494 C53.9234306,54.8105975 53.9742082,55.0687225 54.1749007,55.3789688 C54.3768023,55.6892151 54.3768023,56.4139505 54.4275799,56.8271987 C54.4783576,57.2404468 54.7806054,57.8609394 54.7806054,58.2754285 C54.7806054,58.6886766 54.9317293,60.34291 55.0816442,60.6531563 C55.2339771,60.9634026 55.6873489,61.9983844 55.8384728,62.4116325 C55.9883877,62.8248806 56.3414132,64.6342371 56.4417595,65.4619743 C56.5433147,66.2897115 56.7452163,67.68582 56.7452163,67.9960663 C56.7452163,68.3063126 57.0462551,69.5472979 57.1478104,70.0126674 C57.2481567,70.4780369 57.4004896,71.1494099 57.5008358,71.3566545 C57.6011821,71.563899 58.1549001,72.7006416 58.1549001,73.0108879 C58.1549001,73.3211342 58.3568017,75.1317318 58.3568017,75.700103 C58.3568017,76.2684743 59.010866,77.562822 59.1124213,78.2863164 C59.2127675,79.0098108 59.1124213,80.4580406 58.9612974,82.1643954 C58.8101734,83.8186288 58.0037762,86.506603 58.0545539,86.9210921 C58.1053315,87.3355812 58.1053315,95.194741 58.1053315,95.194741 C58.1053315,95.194741 56.5433147,99.2291842 51.4051016,101.762035 L51.7073495,106 L81,105.998759 L58.8101734,0 L24.7565151,0 L0,106 L29.1403176,105.973939 L31.1037195,92.9708954" id="Fill-16" fill="#FFFFFF" sketch:type="MSShapeGroup" mask="url(#mask-2)"></path>
        </g>
    </g>
</svg>